<?xml version="1.0" standalone="no"?>
<!DOCTYPE svg PUBLIC "-//W3C//DTD SVG 1.1//EN" "http://www.w3.org/Graphics/SVG/1.1/DTD/svg11.dtd" >
<svg xmlns="http://www.w3.org/2000/svg">
<metadata>Generated by IcoMoon</metadata>
<defs>
<font id="dashboard" horiz-adv-x="1024">
<font-face units-per-em="1024" ascent="960" descent="-64" />
<missing-glyph horiz-adv-x="1024" />
<glyph unicode="&#x20;" horiz-adv-x="512" d="" />
<glyph unicode="&#xe000;" glyph-name="error" d="M554 384.667v256h-84v-256h84zM554 212.667v86h-84v-86h84zM512 852.667q176 0 301-125t125-301-125-301-301-125-301 125-125 301 125 301 301 125z" />
<glyph unicode="&#xe002;" glyph-name="warning" d="M554 340.667v172h-84v-172h84zM554 170.667v86h-84v-86h84zM42 42.667l470 810 470-810h-940z" />
<glyph unicode="&#xe06c;" glyph-name="add_circle_outline" d="M512 84.667q140 0 241 101t101 241-101 241-241 101-241-101-101-241 101-241 241-101zM512 852.667q176 0 301-125t125-301-125-301-301-125-301 125-125 301 125 301 301 125zM554 640.667v-172h172v-84h-172v-172h-84v172h-172v84h172v172h84z" />
<glyph unicode="&#xe0ff;" glyph-name="file_download" d="M214 170.667h596v-86h-596v86zM810 554.667l-298-298-298 298h170v256h256v-256h170z" />
<glyph unicode="&#xe110;" glyph-name="keyboard_arrow_left" d="M658 252.667l-60-60-256 256 256 256 60-60-196-196z" />
<glyph unicode="&#xe15e;" glyph-name="edit" d="M884 638.667l-78-78-160 160 78 78q12 12 30 12t30-12l100-100q12-12 12-30t-12-30zM128 202.667l472 472 160-160-472-472h-160v160z" />
<glyph unicode="&#xe1b3;" glyph-name="timelapse" d="M512 84.667q140 0 241 101t101 241-101 241-241 101-241-101-101-241 101-241 241-101zM512 852.667q176 0 301-125t125-301-125-301-301-125-301 125-125 301 125 301 301 125zM692 606.667q76-76 76-180t-74-180-180-76-182 76l180 180v256q104 0 180-76z" />
<glyph unicode="&#xe1e4;" glyph-name="local_mall" d="M512 384.667q88 0 151 62t63 150h-86q0-52-38-90t-90-38-90 38-38 90h-86q0-88 63-150t151-62zM512 810.667q-52 0-90-38t-38-90h256q0 52-38 90t-90 38zM810 682.667q34 0 60-26t26-60v-512q0-34-26-59t-60-25h-596q-34 0-60 25t-26 59v512q0 34 26 60t60 26h84q0 88 63 151t151 63 151-63 63-151h84z" />
<glyph unicode="&#xe200;" glyph-name="arrow_back" d="M854 468.667v-84h-520l238-240-60-60-342 342 342 342 60-60-238-240h520z" />
<glyph unicode="&#xe201;" glyph-name="arrow_drop_down" d="M298 512.667h428l-214-214z" />
<glyph unicode="&#xe203;" glyph-name="arrow_drop_up" d="M298 340.667l214 214 214-214h-428z" />
<glyph unicode="&#xe205;" glyph-name="cancel" d="M726 272.667l-154 154 154 154-60 60-154-154-154 154-60-60 154-154-154-154 60-60 154 154 154-154zM512 852.667q176 0 301-125t125-301-125-301-301-125-301 125-125 301 125 301 301 125z" />
<glyph unicode="&#xe206;" glyph-name="check" d="M384 248.667l452 452 60-60-512-512-238 238 60 60z" />
<glyph unicode="&#xe207;" glyph-name="chevron_left" d="M658 622.667l-196-196 196-196-60-60-256 256 256 256z" />
<glyph unicode="&#xe208;" glyph-name="chevron_right" d="M426 682.667l256-256-256-256-60 60 196 196-196 196z" />
<glyph unicode="&#xe209;" glyph-name="close" d="M810 664.667l-238-238 238-238-60-60-238 238-238-238-60 60 238 238-238 238 60 60 238-238 238 238z" />
<glyph unicode="&#xe20a;" glyph-name="expand_less" d="M512 596.667l256-256-60-60-196 196-196-196-60 60z" />
<glyph unicode="&#xe20b;" glyph-name="expand_more" d="M708 572.667l60-60-256-256-256 256 60 60 196-196z" />
<glyph unicode="&#xe25c;" glyph-name="check_box" d="M426 212.667l384 384-60 62-324-324-152 152-60-60zM810 810.667q36 0 61-26t25-60v-596q0-34-25-60t-61-26h-596q-36 0-61 26t-25 60v596q0 34 25 60t61 26h596z" />
<glyph unicode="&#xe25d;" glyph-name="check_box_outline_blank" d="M810 810.667q34 0 60-26t26-60v-596q0-34-26-60t-60-26h-596q-34 0-60 26t-26 60v596q0 34 26 60t60 26h596zM810 724.667h-596v-596h596v596z" />
<glyph unicode="&#xe25e;" glyph-name="radio_button_unchecked" d="M512 84.667q140 0 241 101t101 241-101 241-241 101-241-101-101-241 101-241 241-101zM512 852.667q176 0 301-125t125-301-125-301-301-125-301 125-125 301 125 301 301 125z" />
<glyph unicode="&#xe25f;" glyph-name="radio_button_checked" d="M512 84.667q140 0 241 101t101 241-101 241-241 101-241-101-101-241 101-241 241-101zM512 852.667q176 0 301-125t125-301-125-301-301-125-301 125-125 301 125 301 301 125zM512 640.667q88 0 151-63t63-151-63-151-151-63-151 63-63 151 63 151 151 63z" />
<glyph unicode="&#xe281;" glyph-name="check_circle" d="M426 212.667l384 384-60 62-324-324-152 152-60-60zM512 852.667q176 0 301-125t125-301-125-301-301-125-301 125-125 301 125 301 301 125z" />
<glyph unicode="&#xe287;" glyph-name="delete" d="M810 768.667v-86h-596v86h148l44 42h212l44-42h148zM256 128.667v512h512v-512q0-34-26-60t-60-26h-340q-34 0-60 26t-26 60z" />
<glyph unicode="&#xe29b;" glyph-name="help" d="M642 458.667q40 40 40 96 0 70-50 120t-120 50-120-50-50-120h84q0 34 26 60t60 26 60-26 26-60-26-60l-52-54q-50-54-50-120v-22h84q0 66 50 120zM554 128.667v84h-84v-84h84zM512 852.667q176 0 301-125t125-301-125-301-301-125-301 125-125 301 125 301 301 125z" />
<glyph unicode="&#xe2a2;" glyph-name="info" d="M554 554.667v86h-84v-86h84zM554 212.667v256h-84v-256h84zM512 852.667q176 0 301-125t125-301-125-301-301-125-301 125-125 301 125 301 301 125z" />
<glyph unicode="&#xe2ca;" glyph-name="search" d="M406 340.667q80 0 136 56t56 136-56 136-136 56-136-56-56-136 56-136 136-56zM662 340.667l212-212-64-64-212 212v34l-12 12q-76-66-180-66-116 0-197 80t-81 196 81 197 197 81 196-81 80-197q0-104-66-180l12-12h34z" />
<glyph unicode="&#xe311;" glyph-name="zoom_in" d="M512 512.667h-86v-86h-42v86h-86v42h86v86h42v-86h86v-42zM406 340.667q80 0 136 56t56 136-56 136-136 56-136-56-56-136 56-136 136-56zM662 340.667l212-212-64-64-212 212v34l-12 12q-76-66-180-66-116 0-197 80t-81 196 81 197 197 81 196-81 80-197q0-104-66-180l12-12h34z" />
<glyph unicode="&#xe600;" glyph-name="arrow-left-lg" d="M767.996 755.748v178.567l-512-512 512-512v173.767l-332.8 338.233 332.8 333.433z" />
<glyph unicode="&#xe601;" glyph-name="arrow-right-lg" d="M255.996 755.748v178.567l512-512-512-512v173.767l332.8 338.233-332.8 333.433z" />
<glyph unicode="&#xe602;" glyph-name="test" d="M330.981 765.327c7.944 24.448 34.554 37.713 58.447 29.95l354.546-115.199c24.336-7.907 37.679-33.966 29.68-58.585-7.944-24.448-34.554-37.713-58.447-29.95l-354.546 115.199c-24.336 7.907-37.679 33.966-29.68 58.585zM405.132 692.293l265.604-86.3-186.847-575.056c-23.906-73.576-102.893-113.854-176.088-90.072-73.344 23.831-113.577 102.319-89.516 176.372l186.847 575.056zM492.55 810.712c24.448-7.944 50.707 5.436 58.651 29.884s-5.436 50.707-29.884 58.651c-24.448 7.944-50.707-5.436-58.651-29.884s5.436-50.707 29.884-58.651zM706.136 790.254c36.672-11.916 76.060 8.154 87.976 44.826s-8.154 76.060-44.826 87.976c-36.672 11.916-76.060-8.154-87.976-44.826s8.154-76.060 44.826-87.976z" />
<glyph unicode="&#xe603;" glyph-name="pingpp" d="M904.494 404.826v345.394h-777.141v-86.348h690.793v-172.695h-690.793v-345.394h86.348v259.045h690.793z" />
<glyph unicode="&#xe60a;" glyph-name="jdpay" d="M954.642 307.095l-61.324-114.783-61.346 114.783h-31.523v-177.226h30.748v112.563l62.121-112.002 62.099 112.025v-112.584h30.791v177.226h-31.567zM681.446 153.408c-35.789 0-64.922 29.066-64.922 64.814 0 35.726 29.131 64.793 64.922 64.793 35.812 0 64.943-29.066 64.943-64.793 0-35.748-29.131-64.814-64.943-64.814v0zM681.446 315.362c-53.438 0-96.92-43.396-96.92-96.747 0-53.374 43.482-96.77 96.92-96.77 53.459 0 96.92 43.396 96.92 96.77 0 53.35-43.46 96.747-96.92 96.747v0zM547.293 170.089c-11.895-10.493-27.107-16.248-42.986-16.248-35.767 0-64.879 29.046-64.879 64.771 0 35.748 29.111 64.77 64.879 64.77 15.88 0 31.115-5.775 43.009-16.289l3.448-2.931 22.561 22.537-3.772 3.448c-17.863 16.247-41.048 25.209-65.244 25.209-53.416 0-96.877-43.396-96.877-96.747 0-53.33 43.46-96.726 96.877-96.726 24.176 0 47.362 8.964 65.311 25.253l3.684 3.427-22.561 22.517-3.447-2.995zM253.913 164.97c-13.193-12.036-33.136-18.144-59.252-18.144h-17.4v146.688h17.4c26.115 0 46.058-6.079 59.252-18.088 12.997-11.82 19.867-30.923 19.867-55.253 0-24.27-6.869-43.356-19.867-55.205v0zM274.032 292.078c-18.54 16.206-45.897 24.421-81.31 24.421h-39.865v-194.325h39.865c35.414 0 62.781 8.206 81.31 24.403 18.305 15.988 27.96 41.136 27.96 72.699 0 31.638-9.656 56.823-27.96 72.803v0zM84.48 198.418c0-13.32-0.926-23.181-2.74-28.557-1.777-5.342-4.5-9.794-8.84-13.198-5.024-3.826-11.122-7.015-18.119-8.794-6.706-1.684-15.040-2.564-24.799-2.648h-0.693v-23.385h0.693c0.683-0.019 1.197 0 1.43 0 26.94 0 47.585 5.828 60.466 16.828 13.096 11.197 19.728 28.325 19.728 50.877v125.925h-27.127v-117.049zM357.461 197.878c-13.338 0-24.198-10.794-24.198-24.154 0-13.296 10.86-24.132 24.198-24.132s24.198 10.838 24.198 24.132c0 13.359-10.86 24.154-24.198 24.154v0zM420.555 616.678h-289.31v41.026h289.31v-41.026zM479.162 583.146v108.372h-406.526v-108.656h172.734v-103.54c0-19.147-3.374-28.665-9.946-34.418-6.643-5.79-16.801-8.844-30.227-9.092v-32.288c34.882 1.102 60.419 8.631 76.688 22.733 16.125 14.030 24.294 35.627 24.294 64.504v92.103h172.982v0.283zM306.429 773.675h-61.059v-25.504h-187.51v-33.815h436.115v33.815h-187.545v25.503zM57.861 404.553h34.56c73.916 64.29 93.241 155.898 93.241 155.898h-66.778c-8.099-64.824-35.449-119.454-61.024-155.898v0zM366.209 560.448c0 0 19.217-91.606 93.134-155.898h34.631c-25.61 36.443-52.925 91.037-61.059 155.898h-66.706zM558.053 404.553h34.56c73.916 64.29 93.169 155.898 93.169 155.898h-66.671c-8.169-64.824-35.484-119.454-61.059-155.898v0zM866.366 560.448c0 0 19.252-91.606 93.169-155.898h34.597c-25.575 36.443-52.925 91.037-61.024 155.898h-66.742zM711.356 748.172l11.97 25.717h-61.164l-12.006-25.717h-92.21v-33.815h76.404l-61.449-131.495h176.925v-103.54c0-19.997-3.304-28.665-9.91-34.418-6.677-5.79-16.765-8.844-30.191-9.092v-32.288c34.845 1.102 60.384 8.631 76.617 22.733 16.161 14.030 24.367 35.627 24.367 64.504v92.103h168.506v33.815h-168.506v72.638h-60.881v-72.638h-99.207l45.182 97.681h298.332v33.815h-282.774z" />
<glyph unicode="&#xe60b;" glyph-name="weixin" d="M319.26 833.882c90.564 17.064 175.55 3.938 254.96-39.376s130.268-102.378 152.582-177.192l5.906-19.688h-27.562c-98.438 0-179.486-33.468-243.144-100.408s-84.33-141.098-62.016-222.474l3.938-21.656h-15.75c-30.188 0-63 4.594-98.44 13.782l-29.532 7.876-57.096-31.5-55.128-29.532 15.75 47.25c9.188 27.562 13.782 43.642 13.782 48.234s-2.626 8.86-7.876 12.798c-53.814 35.438-90.234 80.392-109.268 134.862s-21.002 106.972-5.906 157.504c15.096 50.532 46.268 96.8 93.516 138.8s104.346 68.906 171.286 80.722v0zM295.634 692.13c-10.5 6.562-22.642 8.532-36.422 5.906s-23.954-9.188-30.516-19.688c-15.75-22.312-13.782-42.986 5.906-62.016s40.688-20.672 63.002-4.924c14.438 9.188 21.328 22.642 20.672 40.36s-8.202 31.174-22.642 40.36v0zM533.86 692.13c-14.438 10.5-30.844 11.156-49.222 1.97-18.376-10.5-26.58-26.25-24.608-47.25s12.798-34.784 32.486-41.346c27.564-10.5 47.58-2.626 60.050 23.626s6.236 47.25-18.702 63.002v0zM642.14 572.034c55.126 10.5 107.626 7.876 157.504-7.876s89.908-40.032 120.096-72.846c30.188-32.812 52.502-69.236 66.938-109.266s14.11-81.048-0.982-123.050c-15.096-42-43.642-78.096-85.644-108.284-9.188-7.876-14.11-13.454-14.766-16.736s2.952-16.736 10.828-40.36c7.876-23.626 11.484-36.422 10.828-38.392s-16.078 5.578-46.268 22.642l-45.28 23.626-21.656-5.906c-91.878-24.938-177.518-14.11-256.928 32.486s-121.082 110.58-125.018 191.958c-1.312 40.688 7.548 78.752 26.58 114.19s46.266 65.298 81.704 89.58c35.438 24.282 76.126 40.36 122.066 48.234v0zM636.236 442.094c-6.562 5.25-14.438 7.548-23.626 6.89s-16.736-3.61-22.642-8.86c-5.906-5.25-10.172-11.812-12.798-19.688s-1.97-16.408 1.97-25.596c6.562-15.75 18.702-22.972 36.422-21.656s29.202 9.844 34.454 25.596c6.562 18.376 1.97 32.812-13.782 43.314v0zM831.146 438.156c-7.876 7.876-18.048 10.83-30.516 8.86s-21.984-8.202-28.548-18.702c-9.188-17.062-6.89-32.156 6.89-45.28s29.202-15.096 46.268-5.906c11.812 5.25 18.376 14.438 19.688 27.562s-3.282 24.28-13.782 33.47v0z" />
<glyph unicode="&#xe60e;" glyph-name="apple" d="M931.962 217.153q-23.772-76.191-74.972-152.382-78.628-119.468-156.647-119.468-29.867 0-85.334 19.505-52.418 19.505-92.038 19.505-37.181 0-86.551-20.114-49.372-20.724-80.458-20.724-92.647 0-183.467 157.867-89.6 159.086-89.6 306.591 0 138.972 68.876 227.962 68.267 87.772 173.105 87.772 43.886 0 107.886-18.285 63.391-18.285 84.115-18.285 27.428 0 87.162 20.724 62.172 20.724 105.447 20.724 72.533 0 129.828-39.619 31.695-21.942 63.391-60.953-48.153-40.838-69.486-71.924-39.619-57.295-39.619-126.172 0-75.581 42.058-135.924t96.305-76.8zM702.781 932.125q0-37.181-17.676-82.895-18.285-45.714-56.686-84.115-32.914-32.914-65.828-43.886-22.553-6.705-63.391-10.362 1.828 90.819 47.542 156.647 45.105 65.219 152.382 90.209 0.609-1.828 1.524-6.705t1.524-6.705q0-2.438 3.047-6.095t3.047-6.095z" />
<glyph unicode="&#xe60f;" glyph-name="wechat" d="M289.117 555.677c9.71 16.978 110.628-75.9 128.887-75.9s457.132 195.463 461.354 205.533c4.222 10.069-149.755 158.197-357.508 158.197s-439.49-144.501-439.49-369.395c0-224.894 161.487-265.425 161.487-288.325s-16.342-102.555-16.342-124.406c0-21.852 111.53 67.762 142.207 67.762 13.415 0 246.448-103.167 462.829 83.347s82.624 434.487 73.020 434.487c-17.066 0-509.658-306.090-523.292-306.090s-102.861 197.81-93.151 214.787v0z" />
<glyph unicode="&#xe610;" glyph-name="unionpay" horiz-adv-x="1023" d="M220.382 755.193c5.39 1.348 133.386 1.685 383.993 1.010s377.256-1.010 379.95-1.010c24.251-8.084 35.705-24.925 34.357-50.526 0-4.043-19.201-88.924-57.599-254.647s-58.272-251.278-59.62-256.668c-10.778-29.643-31.661-47.157-62.652-52.547h-765.964c-25.6 5.39-37.725 21.558-36.378 48.505 0 5.39 18.863 89.934 56.588 253.637s57.936 249.595 60.631 257.68c4.043 13.474 12.463 25.6 25.263 36.379s26.61 16.841 41.43 18.189v0zM210.277 598.565c0 0.674-6.738 1.010-20.211 1.010h-20.211c-4.043-12.126-9.095-34.693-15.158-67.703s-9.095-51.535-9.095-55.577c4.043-17.515 20.547-26.273 49.516-26.273s49.515 8.757 61.642 26.273c4.042 6.738 11.452 30.315 22.23 70.735 5.39 22.905 9.432 39.073 12.127 48.505 1.348 1.348 1.685 2.357 1.010 3.031s-4.043 1.010-10.105 1.010h-25.263c0-4.043-3.705-22.231-11.116-54.568s-12.463-49.852-15.158-52.546c-5.39-10.779-13.473-16.506-24.251-17.178s-17.178 4.043-19.201 14.147c-2.021 10.105 5.053 44.125 21.221 102.061 1.348 4.043 2.021 6.4 2.021 7.074v0zM739.783 597.556c-4.043 1.348-18.188 2.021-42.442 2.021h-38.398v-4.043c0-1.348-0.673-5.053-2.021-11.117s-3.367-13.81-6.064-23.242c-2.694-9.432-6.063-23.578-10.105-42.442s-9.432-41.094-16.169-66.693c0 0 1.348-0.337 4.043-1.010s5.727-1.010 9.095-1.010h11.116c4.043 0 7.41 0.337 10.104 1.010l4.043 1.010c0 1.348 0.673 6.738 2.021 16.169 4.043 18.863 6.738 29.642 8.084 32.336s5.39 4.043 12.126 4.043c39.073 0 63.999 13.473 74.778 40.421 10.778 29.643 4.043 47.157-20.211 52.547v0zM420.464 547.029c-5.39 1.348-10.778 1.010-16.169-1.010s-9.095-5.053-11.117-9.095c-2.021-4.043-1.685-7.41 1.010-10.105 4.043-5.39 11.117-6.4 21.221-3.031s15.157 8.421 15.157 15.157c0 4.043-3.367 6.738-10.104 8.084v0zM329.517 536.925c0 2.694-2.021 3.368-6.064 2.021-2.694 0-8.084-0.673-16.169-2.021l-4.043-2.021c-6.738 0-10.104-2.021-10.104-6.064v-6.064l-2.021-2.021c-1.348-14.821-4.716-33.009-10.105-54.568-2.694-8.084-3.706-12.799-3.031-14.147s6.401-1.348 17.178 0h16.169v4.043c4.043 18.863 8.084 36.379 12.126 52.546 0 2.694 3.368 4.043 10.104 4.043 5.39 0 4.716-13.473-2.021-40.421-2.694-12.126-4.043-18.863-4.043-20.211h18.189c8.084 0 12.463 0.337 13.136 1.010s1.685 3.031 3.031 7.074v2.021c1.348 4.042 2.694 10.779 4.043 20.211 6.738 26.947 8.758 43.116 6.064 48.505-6.738 10.779-19.537 11.453-38.398 2.021l-6.064-2.021v2.021c1.348 1.348 2.021 2.694 2.021 4.043v0zM574.061 536.925c0 2.694-2.694 3.368-8.084 2.021-1.348-1.348-6.063-2.694-14.147-4.043-6.738 0-10.442-0.337-11.116-1.010s-1.685-4.38-3.031-11.117c-2.694-14.821-6.063-33.009-10.105-54.568-2.694-9.432-3.705-14.821-3.031-16.169s5.727-1.348 15.158 0h16.169l2.021 6.064c4.043 22.905 7.41 39.073 10.105 48.505 1.348 4.043 4.716 6.064 10.104 6.064 2.694 0 4.38-0.337 5.053-1.010s1.010-2.694 1.010-6.064c0-3.368-0.673-7.41-2.021-12.127s-2.694-12.463-4.043-23.242c-2.694-10.779-4.043-16.841-4.043-18.189 0 0 2.358-0.337 7.074-1.010s9.769-0.673 15.158 0c5.39 0.673 8.421 1.348 9.095 2.021s1.685 4.38 3.031 11.117c1.348 8.084 3.367 18.188 6.064 30.316 5.39 21.558 5.053 35.367-1.010 41.43s-17.178 5.053-33.347-3.031l-6.064-2.021v6.064zM889.338 538.947c-1.348 0-4.716-0.673-10.104-2.021-4.043-1.348-8.758-2.021-14.147-2.021-5.39-1.348-8.421-2.358-9.095-3.031s-0.337-2.357 1.010-5.053c1.348-10.779 3.367-29.642 6.064-56.588l2.021-20.211-8.084-14.147c-5.39-9.432-8.758-16.169-10.104-20.211-1.348 0-2.694-1.010-4.043-3.031s-2.021-3.705-2.021-5.053c-4.043-5.39-7.41-8.084-10.104-8.084h-4.043l-2.021-6.064c0-1.348-0.337-3.031-1.010-5.053s-1.010-3.705-1.010-5.053l-2.021-4.043 14.147 2.021c10.778 0 18.188 2.021 22.23 6.064s12.799 17.515 26.273 40.421c10.778 21.559 27.62 51.872 50.526 90.947 8.084 13.474 10.778 20.211 8.084 20.211 0 0-2.021-0.673-6.064-2.021-6.738-1.348-11.452-2.021-14.147-2.021-5.39-1.348-8.758-2.358-10.104-3.031s-4.716-6.4-10.104-17.178c-1.348-2.694-2.694-5.727-4.043-9.095s-2.694-5.727-4.042-7.073c-1.348-1.348-2.021-2.021-2.021-2.021s-0.674 14.147-2.021 42.442v0zM499.283 536.925c-18.863 4.043-34.693 0.337-47.495-11.117s-19.201-27.284-19.201-47.494c0-8.084 2.021-14.483 6.064-19.201s9.769-7.747 17.178-9.095c7.41-1.348 15.831-1.348 25.263 0 13.474 4.043 24.251 12.463 32.336 25.263s10.778 25.599 8.084 38.398c-2.694 12.799-10.104 20.547-22.23 23.242v0zM796.372 534.903c-14.821 6.738-29.304-0.673-43.451-22.23s-16.506-39.073-7.074-52.547c4.043-6.738 11.117-10.779 21.221-12.127s16.506 0.673 19.201 6.064l2.021-2.021v-2.021h18.189c9.432 0 14.821 0.337 16.169 1.010s2.694 5.727 4.043 15.158c2.694 13.474 7.41 35.705 14.147 66.693 1.348 2.694 0.674 4.043-2.021 4.043-1.348 0-5.39-0.673-12.126-2.021-13.474-2.694-20.211-4.716-20.211-6.064l-4.043 2.021c-1.348 1.348-3.368 2.694-6.064 4.043v0zM424.505 520.756h-6.064c-2.694-1.348-8.084-2.694-16.169-4.043-6.738-1.348-10.442-2.021-11.117-2.021s-1.685-3.368-3.031-10.105c-2.694-16.169-6.063-30.315-10.104-42.442-1.348-6.738-1.685-10.442-1.010-11.117s6.401-0.337 17.178 1.010h16.169l2.021 8.084c1.348 8.084 5.39 26.273 12.127 54.568 1.348 4.043 1.348 6.064 0 6.064v0zM515.451 412.633c0 0.673-10.104 1.010-30.315 1.010l-6.064-10.105c-5.39-8.084-10.779-12.127-16.169-12.127h-4.043l-4.043-18.189c0-4.043 9.432-2.694 28.295 4.042l6.064 4.043 4.043 2.021h44.462l4.043 18.189-30.315 2.021c0 0 0.673 1.348 2.021 4.043s2.021 4.38 2.021 5.053v0zM584.165 412.633c0 0.673-4.38 1.010-13.136 1.010h-14.147c-0.673 0-7.41-20.884-20.211-62.652s-19.201-64.673-19.201-68.714c-2.694-6.738-2.021-11.117 2.021-13.136s14.147-2.358 30.315-1.010h16.169l2.021 10.104c2.694 6.738 3.705 10.442 3.031 11.117s-3.705 0.337-9.095-1.010c-8.084 0-12.126 0.673-12.126 2.021s2.021 10.779 6.064 28.295l6.064 16.169 30.316 2.021h28.295l6.064 2.021c5.39 2.694 9.432 6.738 12.127 12.126 1.348 2.694 3.705 9.095 7.074 19.201s6.401 19.874 9.095 29.304c2.694 9.432 3.705 14.147 3.031 14.147h-21.221c-24.251 0-41.093-2.694-50.527-8.084-4.043-2.694-6.064-4.043-6.064-4.043s0.673 1.685 2.021 5.053c1.348 3.367 2.021 5.39 2.021 6.064v0zM719.573 413.643h-28.295l-2.021-6.064c-1.348-1.348-12.799-38.397-34.357-111.157-1.348-2.694-2.694-4.043-4.043-4.043s-3.367-2.694-6.064-8.084l-2.021-10.105h28.295c18.863-2.694 28.295-4.716 28.295-6.064h28.295v2.021c0 2.694 2.021 4.043 6.064 4.043 1.348 0 2.021-0.337 2.021-1.010v-1.010c5.39-2.694 9.432-4.043 12.126-4.043 10.778 0 18.188 1.010 22.23 3.031s10.104 8.421 18.189 19.201l6.064 10.104 2.021-12.126c0-5.39 0.674-9.095 2.021-11.117s2.694-3.705 4.042-5.053c1.348-1.348 3.368-2.357 6.064-3.031s6.063-1.010 10.104-1.010h10.104l4.043 10.105c1.348 6.738 2.021 10.104 2.021 10.104h-4.043c-4.043 0-6.401 0.673-7.074 2.021s-1.685 5.39-3.031 12.126l-2.021 14.147h-12.126l2.021 2.021 2.021 4.043h34.357l4.043 8.084c1.348 5.39 1.685 8.421 1.010 9.095s-5.727 1.010-15.158 1.010h-14.147v2.021c0 1.348 1.348 5.39 4.043 12.126h16.169l14.147 2.021 4.043 8.084c1.348 5.39 2.021 8.421 2.021 9.095s-15.494 1.010-46.483 1.010h-46.483l-2.021-10.105-4.043-8.084 16.169-2.021h18.189c0 0-2.021-4.716-6.064-14.147h-32.336l-4.043-8.084c-1.348-5.39-1.685-8.421-1.010-9.095s5.727-1.010 15.158-1.010h12.126l-6.064-10.104c-10.778-14.821-17.515-22.905-20.211-24.251s-5.39-2.021-8.084-2.021c-4.043 0-5.39 1.348-4.043 4.043s0 4.043-4.042 4.043c-1.348 0-2.021 0.673-2.021 2.021 18.863 61.978 28.295 93.641 28.295 94.988s2.021 2.021 6.064 2.021h4.043l2.021 4.043 2.021 6.064v-8.084c0-6.738 1.685-11.116 5.053-13.136s11.116-3.031 23.242-3.031h8.084l4.043 10.104 2.021 10.105h-4.043c-5.39 0-8.084 2.694-8.084 8.084v6.064h-14.147c-39.073 0-62.652-2.021-70.735-6.064-2.694 1.348-4.716 2.021-6.064 2.021 1.348 2.694 2.021 4.043 2.021 4.043v0zM535.662 369.181h-78.819c-2.694-5.39-4.042-11.452-4.042-18.189h16.169l-4.043-16.169h-8.084c-6.738 0-10.105-0.673-10.105-2.021 0 0-2.021-5.39-6.064-16.169 0-1.348 3.031-2.021 9.095-2.021h9.095c0 0-2.021-5.39-6.064-16.169-4.043-14.821-4.716-23.578-2.021-26.273s12.126-4.043 28.295-4.043h22.23l2.021 10.104c2.694 5.39 3.706 8.421 3.031 9.095s-3.031 1.010-7.074 1.010c-9.432-1.348-14.821-1.348-16.169 0s-0.673 6.063 2.021 14.147l4.043 12.126h30.315l2.021 8.084c1.348 2.694 2.694 5.39 4.043 8.084v3.031c0 0.673-5.39 1.010-16.169 1.010l-14.147 2.021c0 0 1.348 4.716 4.042 14.147h30.316l6.064 18.189zM636.712 330.781l-10.105 2.021h-12.126v-4.043c-1.348-5.39-4.043-8.084-8.084-8.084h-6.064v12.126h-14.147l-12.126-2.021v-28.295c-1.348-21.558 0-33.009 4.043-34.357 2.694 0 9.432-0.337 20.211-1.010s16.842-0.337 18.189 1.010c4.043 6.738 6.064 13.474 6.064 20.211h-12.126l-10.105-2.021v2.021c-1.348 1.348-2.021 4.38-2.021 9.095s0.673 7.074 2.021 7.074c0 0 3.368 0.673 10.105 2.021 13.474 0 21.559 6.063 24.251 18.189 1.348 4.043 2.021 6.064 2.021 6.064v0zM685.217 553.093c2.694 12.126 4.38 19.201 5.053 21.221s1.010 3.031 1.010 3.031c1.348 0 6.063-0.673 14.147-2.021 18.863-1.348 25.6-9.432 20.211-24.251-5.39-16.169-18.188-23.578-38.398-22.23h-8.084l6.064 24.251zM479.072 516.714c9.432 4.043 12.799-2.021 10.105-18.189l-4.042-12.127c-5.39-16.169-11.453-21.558-18.189-16.169-4.043 2.694-4.38 10.779-1.010 24.251s7.747 20.885 13.136 22.23v0zM788.288 514.693c8.084 5.39 12.126 2.021 12.126-10.105 0-10.779-2.694-20.211-8.084-28.295s-10.104-10.779-14.147-8.084c-4.042 2.694-4.716 10.442-2.021 23.242s6.738 20.547 12.126 23.242v0zM578.103 391.412c0 1.348 7.41 2.021 22.231 2.021s22.23-0.337 22.23-1.010c0-0.673-0.673-3.705-2.021-9.095l-12.126-2.021c-12.126 0-22.231-2.021-30.316-6.064-4.043-1.348-6.064-2.021-6.064-2.021s1.348 3.368 4.043 10.104l2.021 8.084zM570.018 363.118h44.462l-2.021-8.084h-44.462l2.021 8.084zM709.468 381.307l4.043 12.127h12.126c6.738 0 10.104-0.673 10.104-2.021 0-6.738-1.348-12.126-4.043-16.169 0 0-2.021-0.337-6.064-1.010s-8.084-1.685-12.126-3.031c-4.043-1.348-6.401-2.021-7.074-2.021s0.337 4.043 3.031 12.127v0zM701.385 355.033h24.251l-2.021-6.064c-1.348-4.043-2.694-6.738-4.043-8.084 0-2.694-2.021-4.043-6.064-4.043-4.043-1.348-8.084-2.694-12.126-4.043s-6.064-2.021-6.064-2.021c0 0 0.673 4.043 2.021 12.126 2.694 6.738 4.043 10.779 4.043 12.127v0zM683.194 294.403l8.084 22.23 22.23-2.021c-1.348 0-3.368-6.738-6.064-20.211h-24.251z" />
<glyph unicode="&#xe611;" glyph-name="alipay" d="M419.686 778.757l1.97 63.002h137.815v-131.908h139.784c93.189 1.312 139.784 0.656 139.784-1.97v-45.281h-279.569v-84.658h116.159c51.188 0 83.346-0.656 96.472-1.97s19.688-4.594 19.688-9.844c0-9.188-8.531-38.392-25.595-87.611s-31.501-85.643-43.314-109.267l-21.656-45.281 15.75-5.906c63.002-24.938 139.783-49.221 230.349-72.846l57.096-15.75v-169.316l-21.656 9.844c-19.688 7.876-71.531 31.173-155.534 69.893s-135.847 63.329-155.534 73.83l-37.407 17.719-11.813-13.782c-14.438-15.75-39.375-36.751-74.814-63.002s-65.626-44.626-90.565-55.127c-66.939-34.125-134.862-49.549-203.77-46.268s-126.331 24.609-172.269 63.986c-43.314 35.438-63.657 80.72-61.033 135.847s27.562 99.095 74.814 131.908c44.626 31.501 102.377 47.907 173.253 49.221 65.626 0 145.689-14.438 240.192-43.314 43.314-13.125 68.252-19.031 74.814-17.719 3.937 1.313 13.782 21.001 29.532 59.063s25.595 66.939 29.532 86.627l3.937 15.75-444.946-3.937v47.251h220.504v84.658h-265.788v51.188h261.848l1.97 64.97zM394.091 345.622c-43.314 14.438-89.908 22.313-139.784 23.626-42.001 1.313-73.501-0.328-94.502-4.923s-40.688-14.109-59.063-28.548c-27.563-21.001-40.032-51.844-37.407-92.533 6.563-72.189 57.095-110.908 151.598-116.159 85.314-5.25 164.065 19.031 236.256 72.846 26.25 19.688 46.595 38.72 61.033 57.096l21.656 25.595-39.375 21.656c-23.625 11.813-57.095 25.595-100.408 41.345v0z" />
<glyph unicode="&#xe612;" glyph-name="iconfont-weibo" d="M386.048 226.816q11.264 18.432 6.144 38.912t-25.6 28.672q-19.456 8.192-41.984 0t-33.792-25.6q-13.312-19.456-8.192-38.912t24.576-29.696 43.008-1.024 35.84 27.648zM439.296 295.424q5.12 7.168 2.048 15.36t-10.24 10.24q-7.168 3.072-16.384 0t-12.288-10.24q-9.216-18.432 8.192-26.624 8.192-2.048 16.384 1.024t12.288 10.24zM538.624 233.984q-25.6-58.368-90.112-84.992t-128-7.168q-61.44 19.456-83.968 72.704t3.072 106.496q27.648 53.248 87.040 79.872t119.808 10.24q63.488-16.384 91.136-67.584t1.024-109.568zM716.8 326.144q-5.12 54.272-50.176 96.256t-119.808 62.464-156.672 12.288q-126.976-13.312-210.944-80.896t-75.776-151.552q5.12-54.272 51.2-96.256t118.784-62.464 156.672-12.288q128 13.312 210.944 80.896t75.776 151.552zM892.928 323.072q0-38.912-20.48-78.848t-62.464-78.848-96.256-66.56-129.024-48.128-154.624-17.408-157.696 19.456-137.216 52.224-98.304 87.040-36.864 113.664q0 65.536 39.936 140.288t112.64 147.456q96.256 96.256 195.584 134.144t140.288-3.072q36.864-36.864 11.264-119.808-2.048-8.192 0-11.264t5.12-4.096 8.192 0 8.192 2.048l3.072 1.024q79.872 33.792 141.312 33.792t87.040-34.816q25.6-35.84 0-101.376-1.024-8.192-3.072-11.264t3.072-7.168 7.168-5.12 9.216-3.072q32.768-10.24 59.392-26.624t45.056-47.104 19.456-66.56zM850.944 680.448q23.552-27.648 30.72-62.464t-3.072-67.584q-5.12-12.288-17.408-19.456t-25.6-2.048q-12.288 5.12-19.456 17.408t-2.048 25.6q11.264 35.84-13.312 62.464t-61.44 20.48q-13.312-3.072-25.6 4.096t-14.336 21.504q-3.072 14.336 5.12 25.6t20.48 14.336q34.816 7.168 68.608-3.072t57.344-37.888zM954.368 773.632q49.152-55.296 64.512-128t-8.192-137.216q-5.12-16.384-19.456-23.552t-29.696-2.048-22.528 19.456-3.072 29.696q16.384 47.104 6.144 98.304t-46.080 90.112q-35.84 39.936-84.992 54.272t-98.304 5.12q-16.384-3.072-29.696 6.144t-17.408 24.576 5.12 29.696 25.6 16.384q69.632 14.336 139.264-6.144t118.784-76.8z" />
<glyph unicode="&#xe613;" glyph-name="iconfont-qq" d="M167.376 497.455l-1.853 5.712-1.483 7.488-1.039 4.097v16.849l1.78 6.601 1.853 7.043 2.372 7.325 3.227 8.193 4.265 8.509 6.005 8.528v5.986l0.593 5.581 0.89 7.619 2.596 8.49 2.372 9.233 1.89 4.265 2.187 3.947 2.818 4.394 3.041 3.246v21.095l1.78 10.864 1.779 12.606 3.188 15.090 4.377 15.684 3.261 8.655 3.227 9.38 3.52 8.786 4.227 9.382 4.302 10.272 4.967 9.657 5.563 10.269 7.044 10.274 3.226 5.856 3.484 4.841 7.526 10.844 7.712 10.844 8.825 11.14 9.418 10.864 10.234 10.676 10.678 11.013 12.902 11.865 8.231 7.19 9.972 7.767 10.121 6.879 10.976 6.598 10.528 5.859 11.866 4.841 12.605 6.023 12.534 4.096 12.529 4.244 13.497 4.245 13.495 3.226 14.238 2.653 14.384 2.334 28.401 3.838 15.125 0.853h44.714l14.907-1.891 14.979-1.779 15.276-1.615 14.163-3.372 14.979-3.207 14.051-3.652 15.387-4.114 14.090-4.988 13.498-5.71 14.384-6.026 13.163-6.601 12.754-7.302 12.492-8.082 10.826-7.472 4.967-4.243 5.268-3.077 10.011-8.507 8.451-8.214 8.384-8.507 8.227-9.379 6.748-9.085 8.009-9.38 5.635-10.102 5.676-8.955 6.043-10.418 4.965-9.083 8.452-19.205 4.155-9.956 3.223-9.231 3.227-9.972 2.892-9.38 2.076-8.066 2.595-9.526 4.598-17.002 2.928-14.811 1.893-14.366 1.631-11.567 2.595-17.594 0.594-2.8 2.076-3.227 5.561-9.083 3.557-6.133 3.191-6.47 4.077-6.877 3.561-8.233 2.299-8.492 2.523-9.23 1.927-9.509 0.891-4.693 0.739-5.729v-4.985l-0.739-4.988v-6.172l-1.487-5.989-2.668-11.586-3.040-5.856-2.226-6.602v-1.614l1.039-2.058 3.041-4.839 13.198-19.502 10.455-14.646 4.969-9.825 6.747-10.694 5.859-11.735 6.746-12.588 6.749-14.087 7.602-15.98 4.262-9.808 3.93-9.527 3.41-10.121 3.34-9.084 2.521-9.527 2.593-8.954 3.264-17.444 2.595-17.871 1.779-15.83v-22.284l-1.184-7.934-1.709-13.627-2.37-12.309-3.634-11.122-1.333-4.543-2.521-5.431-2.15-3.819-2.819-4.69-2.519-2.948-3.19-3.801-2.816-3.077-3.042-2.633-3.631-1.61-3.263-1.614-2.669-0.871h-4.080l-2.631 0.871-5.006 2.486-2.299 1.61-2.374 1.761-2.631 2.356-2.633 2.631-4.372 4.841-5.194 6.877-4.076 7.062-4.081 5.691-3.965 6.598-5.599 11.737-6.304 12.181-0.739 0.427h-1.039l-2.592-1.909-1.485-3.209-2.446-3.967-4.303-11.884-6.45-16.847-8.305-20.226-6.228-10.123-6.564-10.548-7.749-11.863-8.229-11.603-4.228-5.268-5.116-5.71-11.753-11.588 1.036-1.020 1.594-1.632 5.861-3.503 24.468-11.717 10.679-6.005 10.157-5.858 10.085-7.343 8.975-7.635 4.371-3.375 3.265-3.966 3.338-4.523 2.818-5.005 1.483-4.114 1.853-4.97 0.741-4.226 0.887-5.005-0.887-3.376v-3.338l-0.741-3.561-1.853-3.186-0.741-2.524-1.632-3.040-4.45-6.042-4.080-4.859-3.187-3.631-2.669-2.669-6.749-4.97-7.635-4.265-8.157-4.115-8.677-3.93-9.789-3.782-5.193-1.633-4.669-1.332-11.271-2.633-11.715-2.484-11.717-2.521-12.753-2.041-13.198-0.554-13.498-1.631h-41.895l-15.129 0.889-14.087 1.296-15.129 2.041-15.052 1.632-15.868 2.224-15.35 3.783-14.978 2.965-14.905 4.227-15.276 5.413-14.979 4.561-7.862 2.633-7.045 2.519-4.447 1.708-4.375 0.89h-12.459l-14.384 1.035-7.305 0.745-9.382 1.035-6.004-5.411-8.233-5.152-11.123-5.451-12.307-6.747-7.489-3.634-7.787-2.928-17.275-7.046-9.386-2.333-9.824-2.67-13.646-2.595-8.526-0.741-9.046-0.74-9.42-1.037-10.974-0.445h-44.823l-25.324 0.445-24.544 2.521-12.458 1.708-12.012 1.777-11.717 1.781-11.715 2.333-10.862 3.525-10.866 2.484-9.789 3.966-9.267 3.634-8.601 4.154-7.492 4.523-7.488 5.413-2.521 2.669-3.34 3.191-2.521 2.814-2.299 3.19-2.077 3.262-1.632 3.191-2.337 6.894-0.852 3.523-1.038 3.966v3.634l1.038 4.117v4.114l0.852 4.115v8.194l0.409 4.41 1.929 5.007 1.632 4.967 2.966 6.007 2.148 2.337 1.78 2.629 4.673 5.712 3.707 2.965 3.484 2.041 3.227 2.631 5.154 1.634 4.077 2.445 5.118 2.67 5.856 1.743 5.859 1.779 6.748 1.446 6.451 0.889 7.635 1.020 8.233 0.591 2.189 0.743h0.442l1.040 0.889v1.003l-1.483 2.058-4.414 2.059-10.974 9.526-7.344 5.858-8.526 7.471-8.601 8.341-8.975 10.716-10.234 12.016-3.855 6.468-5.116 6.729-4.375 7.787-3.929 8.49-5.34 8.066-3.485 9.23-4.114 9.233-4.115 10.27-3.043 9.806-2.818 12.181-0.889 0.445h-0.853l-0.444 0.87h-1.039l-2.631-1.315-1.185-2.059-0.445-2.482-0.89-2.207-1.557-3.651-5.042-8.954-2.593-5.43-4.114-4.691-4.414-5.69-4.819-6.322-5.117-5.581-6.006-5.411-5.599-5.116-6.115-3.988-6.749-4.243-6.45-2.484-7.639-1.908-7.488-0.722h-1.779l-1.707 0.722-1.335 2.948-2.224 1.446-2.892 7.044-1.779 3.819-1.927 5.431-1.595 5.691-0.853 5.582-2.373 12.753-0.89 7.489v24.618l0.89 18.316 1.483 9.38 1.743 9.677 1.595 10.399 2.817 9.675 3.188 11.162 3.262 10.828 4.375 11.158 4.114 10.697 5.676 10.843 5.339 11.717 6.45 10.991 7.601 11.884 7.749 10.697 8.084 11.865 6.747 8.212 8.64 9.525 9.082 9.529 4.227 4.543 5.153 5.136 7.456 6.468 7.634 6.583 12.46 11.14 9.419 6.878z" />
<glyph unicode="&#xe614;" glyph-name="qr" d="M275.507 426.494h43.045v-43.014h43.014v-43.014h-215.044v43.014h43.014v86.031h86.060v-43.014h-0.090zM834.614 39.476h42.956v43.014h-42.956v-43.014zM318.522 426.494h43.014v43.014h-43.014v-43.014zM920.524 39.476h43.014v43.014h-43.014v-43.014zM404.582-3.539h85.969v43.014h-85.969v-43.014zM791.569-3.539v43.014h-43.014v-43.014h43.014zM619.569-3.539h43.014v86.031h-43.014v-86.031zM275.507 555.507v-43.014h129.017v43.014h-129.017zM232.551 512.523v43.014h-86.060v-86.031h43.014v43.014h43.045zM361.538 598.523h-301.017v301.017h301.017v-301.017zM318.522 856.524h-215.044v-214.985h215.044v214.985zM146.491 82.491h128.983v129.017h-128.983v-129.017zM576.523 125.506v-43.014h43.075v43.014h-43.075zM275.507 813.509h-128.983v-128.956h128.983v128.956zM963.539 899.539v-301.017h-301.017v301.017h301.017zM920.524 856.524h-214.985v-214.985h214.985v214.985zM60.461 297.538h301.044v-301.017h-301.044v301.017zM103.507 39.476h215.044v215.044h-215.044v-215.044zM103.507 555.507h-43.045v-215.044h43.045v215.044zM662.523 340.493v-42.956h43.014v42.956h-43.014zM533.506 168.492v43.014h-43.014v-43.014h-85.969v-86.060h85.969v-43.014h43.014v86.060h43.014v43.014h-43.014zM404.582 727.508h85.969v43.075h-85.969v-43.075zM748.554 383.477h86.091v-43.014h42.956v128.983h-42.956v86.060h-43.075v-129.017h-128.956v-43.014h43.014v-43.014h43.014v43.014h-0.090zM791.569 254.522h-43.014v43.014h-43.014v-86.031h-129.017v-43.014h86.091v-86.060h43.014v-43.014h43.014v86.060h171.97v43.014h-128.983v86.031h-0.061zM791.569 254.522h43.075v85.969h-43.075v-85.969zM447.537 254.522v43.014h42.956v42.956h43.014v43.045h43.014v86.031h129.017v86.060h-43.014v-43.014h-43.014v172.030h-43.014v86.031h43.014v128.894h-43.014v-86.031h-43.014v86.031h-128.983v-86.031h43.014v43.014h42.956v-85.969h43.014v-129.017h43.014v-43.014h-43.014v-86.031h-43.014v86h-42.956v43.014h-43.014v-86.031h43.014v-43.014h-43.014v-129.017h43.014v86.031h42.956v-86.031h-42.956v-43.014h-43.014v-128.956h85.969v43.014h-42.925zM920.524 211.507v43.014h-85.969v-43.014h85.969zM877.509 813.509h-128.956v-128.956h128.956v128.956zM533.506 254.522h86.091v43.014h-43.075v42.956h-43.014v-85.969zM619.569 340.493v43.014h-43.075v-43.014h43.075zM877.509 512.523h86.031v43.014h-86.031v-43.014zM920.524 168.492h43.014v43.014h-43.014v-43.014zM920.524 426.494h43.014v43.014h-43.014v-43.014zM533.506 641.538h-43.014v-43.014h43.014v43.014z" />
<glyph unicode="&#xe615;" glyph-name="baidu" d="M414.117 387.569c-2.046-2.062-3.453-4.974-3.453-8.149s1.407-6.087 3.453-8.182l101.307-101.569c2.094-2.16 4.943-3.404 8.248-3.404 3.126 0 6.054 1.244 8.1 3.404l101.324 101.569c2.193 2.094 3.437 5.007 3.437 8.182s-1.244 6.087-3.437 8.149l-101.324 101.602c-2.046 2.078-4.974 3.387-8.1 3.387-3.306 0-6.153-1.309-8.248-3.387l-101.307-101.602zM548.953 624.4c-2.618-0.9-4.418-3.256-4.418-5.956 0-3.191 2.193-5.744 5.367-6.169 116.82-13.058 207.589-112.386 207.589-232.854 0-129.486-104.744-234.457-233.82-234.457-129.191 0-233.967 104.973-233.967 234.457 0 72.376 33.267 139.926 76.778 185.531 62.296 69.054 148.827 123.53 238.337 162.278 7.004 2.978 15.218 6.382 19.227 8.035 63 25.118 129.044 42.006 197.935 49.68 5.793 0.687 10.326 5.531 10.326 11.487-1.931 50.106-42.693 89.754-93.093 89.754-11.814 0-22.352-2.013-33.922-5.826-96.365-33.48-176.809-50.17-272.913-50.17-65.078 0-127.963 8.182-188.362 23.465-25.953 6.66-49.991 17.509-71.542 31.909-1.113 0.622-2.324 1.031-3.583 1.031-3.273 0-6.038-2.831-6.038-6.235 17.869-84.273 79.217-150.906 159.137-175.893 2.47-0.769 4.254-3.126 4.254-5.891 0-2.209-1.080-4.14-2.733-5.252-103.254-66.174-171.638-182.078-171.638-313.904 0-205.806 166.402-372.583 371.798-372.583 205.265 0 371.65 166.778 371.65 372.583 0 143.526-116.165 259.937-259.462 259.937-30.486 0-59.744-5.286-86.907-14.956z" />
<glyph unicode="&#xe616;" glyph-name="yeepay" d="M115.296 452.167c0 244.23 209.009 453.57 464.465 465.194-11.611 0-11.611 0-23.225 0-301.902 0-545.747-209.328-545.747-465.194 0-255.863 243.845-465.193 545.747-465.193 11.615 0 11.615 0 23.225 0-255.457 11.636-464.465 220.963-464.465 465.193v0zM602.985 835.965c-11.611 0-23.223 0-34.834 0 197.398-11.635 336.736-186.082 336.736-383.798 0-197.714-139.338-372.161-336.736-383.794 11.611 0 23.223 0 34.834 0 232.233 0 406.407 174.468 406.407 383.794 0 209.34-174.173 383.798-406.407 383.798v0zM568.15 487.059c0 0-23.223-23.257 0-46.527 11.611-23.245 34.834-11.632 46.446-11.632l139.338 116.309c0 0 23.225 11.621 0 46.525 0 0-104.503 174.448-278.679 69.773l-150.951-58.149c0 0-174.175-81.406-81.281-209.34 0 0 23.222-23.266 58.057-46.514 0 0 139.342-116.295 162.563-127.932 0 0 116.117-58.147 197.397 34.88 0 0 174.176 174.448 185.787 209.35 0 0 0 11.635 0 34.879 0 0-11.611 34.905-58.057-11.623 0 0-69.671-81.406-104.506-116.307 0 0-46.446-58.15-104.503-11.615 0 0-34.834 11.615-139.338 116.299 0 0-46.448 34.879-11.615 81.394 0 0 104.507 93.053 162.564 46.528 0 0 34.832-11.625 46.446-23.257 0 0 23.222-23.271 0-34.892l-69.669-58.15z" />
<glyph unicode="&#xe619;" glyph-name="iconfont-qq-line" d="M541.852 62.192v0h-50.945c-6.364 0-19.102 0-25.468-6.364-25.473-25.473-70.048-38.211-127.362-38.211-38.208 0-70.048 6.37-101.885 19.107-25.473 12.735-38.211 25.468-38.211 44.576 0 19.102 12.738 31.837 44.575 44.575 19.109 6.365 25.473 12.735 25.473 25.473 0 12.735 0 25.468-6.364 31.837-12.737 12.738-19.109 31.842-31.842 44.575-6.37 12.738-19.102 19.103-31.841 19.103v0c-12.735 0-19.103-6.365-31.837-12.735-12.738-12.737-19.102-19.102-25.474-19.102v0c-6.368 0-12.738 19.102-12.738 50.945 0 31.839 6.37 70.044 12.738 108.255 12.735 38.207 31.837 70.048 63.68 101.885 6.368 6.37 12.737 19.103 12.737 31.841v12.735c0 19.102 6.364 38.21 19.103 57.313 6.364 6.37 6.364 12.734 6.364 19.103v6.368c0 76.413 25.473 140.096 82.787 197.407 50.945 57.31 114.623 82.783 191.038 82.783 76.418 0 140.096-25.473 197.411-82.783 50.941-57.31 82.783-120.993 82.783-197.407v-6.368c0-6.37 0-12.734 6.37-19.103 12.734-19.103 19.102-38.211 19.102-57.313v-12.735c0-12.737 0-25.471 12.734-31.841 31.842-31.836 50.947-63.679 63.683-101.885 12.735-38.21 19.103-76.417 12.735-108.255 0-31.842-6.37-44.579-19.103-50.945-6.367 0-12.737 6.365-25.473 19.102-6.37 6.37-19.102 12.735-31.842 12.735h-6.364c-12.738 0-25.473-6.365-31.842-19.103-6.37-19.102-19.104-31.836-31.842-44.575-6.365-6.37-12.735-19.102-6.365-31.837 0-12.736 12.735-19.107 19.101-25.473 31.839-12.737 44.577-25.473 44.577-44.575 0-19.109-12.738-31.842-38.207-44.576-25.473-12.737-63.685-19.107-101.89-19.107-57.31 0-95.521 12.738-127.358 38.211 6.365 0-6.367 6.364-12.737 6.364v0zM688.318-58.796c63.678 0 114.623 12.734 152.83 38.207 38.207 25.471 63.679 57.313 63.679 101.89 0 25.473-6.365 44.575-19.101 63.679 6.367 0 19.101 0 25.471 6.368 38.206 12.735 57.31 44.576 63.678 95.517 6.37 44.575 0 95.52-19.102 152.834-12.734 44.576-38.206 82.783-70.046 120.99v0c0 31.841-6.371 57.313-19.104 89.151 0 95.521-31.842 178.308-101.89 248.352-70.043 70.047-152.831 101.89-248.351 101.89-95.517 0-178.303-31.842-248.351-101.89-63.678-70.043-101.885-152.83-101.885-248.352-12.738-25.467-19.102-57.309-19.102-89.151v-6.364c-38.211-31.842-57.314-76.419-70.049-114.624-19.102-57.314-25.471-108.258-19.102-152.834 6.364-50.941 31.837-82.783 63.679-95.517 6.364 0 19.102-6.368 25.473-6.368-12.739-19.103-19.11-38.207-19.11-63.679 0-38.211 19.11-76.419 63.683-101.89 38.207-25.474 89.153-38.207 146.462-38.207 63.679 0 120.993 12.734 159.199 44.575h31.842c44.578-31.843 95.523-44.576 159.202-44.576v0z" />
<glyph unicode="&#xe900;" glyph-name="wl_transaction" d="M625.778 277.333h-512v113.778h796.444l-284.444-284.444v170.667zM398.222 618.667h512v-113.778h-796.444l284.444 284.444v-170.667z" />
<glyph unicode="&#xe901;" glyph-name="wl_help_center" d="M512 49.778c-219.932 0-398.222 178.29-398.222 398.222s178.29 398.222 398.222 398.222c219.932 0 398.222-178.29 398.222-398.222s-178.29-398.222-398.222-398.222zM504.887 675.556c-51.067 0-91.093-14.492-120.077-44.166-28.984-28.984-43.476-68.32-43.476-118.697h72.46c0 30.364 6.211 53.828 18.633 70.39 13.802 20.013 36.575 29.674 67.63 29.674 24.844 0 44.856-6.901 58.658-20.703 13.112-13.802 20.013-32.435 20.013-56.588 0-17.943-6.901-34.505-19.323-50.377l-11.732-13.112c-42.786-37.955-69.010-66.25-77.981-85.572-9.661-17.943-13.802-40.026-13.802-65.559v-11.732h73.841v11.732c0 16.562 3.45 31.745 11.042 45.547 6.211 12.422 15.872 24.844 28.984 35.885 32.435 28.294 51.757 46.237 57.968 53.828 17.252 22.083 26.224 50.377 26.224 84.192 0 41.406-13.802 74.531-41.406 98.684-27.604 24.844-63.489 36.575-107.656 36.575zM505.488 277.333c-13.802 0-26.224-4.141-35.885-13.802-9.661-8.971-14.492-20.703-14.492-35.195 0-13.802 4.831-25.534 14.492-35.195s22.083-14.492 35.885-14.492c13.802 0 26.224 4.831 35.885 13.802 9.661 9.661 15.182 21.393 15.182 35.885s-4.831 26.224-14.492 35.195c-9.661 9.661-22.083 13.802-36.575 13.802z" />
<glyph unicode="&#xe902;" glyph-name="wl_billings" d="M512 49.778c-219.932 0-398.222 178.29-398.222 398.222s178.29 398.222 398.222 398.222c219.932 0 398.222-178.29 398.222-398.222s-178.29-398.222-398.222-398.222zM478.882 682.975c-34.99-2.413-63.345-11.462-86.27-27.751-30.767-21.115-45.85-51.279-45.85-91.096 0-44.643 20.512-78.427 62.742-101.352l69.378-25.338v-141.168c-18.702 2.413-33.181 8.446-43.436 18.099-13.876 13.272-21.718 36.197-24.131 67.568h-69.981c3.62-49.469 18.099-86.27 43.436-110.401 21.718-20.512 53.089-31.974 94.112-34.99v-53.089h39.817v53.089c36.8 2.413 66.965 11.462 91.096 27.148 32.577 21.718 48.866 53.692 48.866 96.525 0 44.040-21.115 77.824-62.742 101.352-3.62 2.413-29.561 12.066-77.22 29.561v132.723c15.082-1.81 27.148-6.033 36.197-12.669 14.479-10.256 23.528-27.751 27.148-53.089h68.774c-6.033 44.040-21.115 76.014-45.85 95.319-21.115 16.892-50.073 27.148-86.27 29.561v49.469h-39.817v-49.469zM518.699 422.96c2.413-0.603 4.223-1.207 6.636-2.413 41.627-14.479 62.742-35.594 62.742-62.742 0-19.908-8.446-35.594-25.338-46.453-12.066-7.843-27.148-12.669-44.040-15.082v126.69zM478.882 506.213c-41.023 15.685-61.535 34.99-61.535 57.915 0 22.322 7.843 38.61 24.131 48.263 9.049 6.033 21.718 10.256 37.404 12.066v-118.244z" />
<glyph unicode="&#xe903;" glyph-name="wl_finance_report" d="M170.667 789.333v-682.667h341.333v682.667h-341.333zM853.333 618.667l-170.294 170.667h-171.040v-682.667h341.333v512zM341.333 504.889h113.778v-284.444h-113.778v284.444zM568.889 618.667h113.778v-398.222h-113.778v398.222z" />
<glyph unicode="&#xe904;" glyph-name="wl_receipt" d="M804.571 618.667h105.651v-512h-739.556v102.4h633.905v409.6zM113.778 789.333h625.778v-512h-625.778v512z" />
<glyph unicode="&#xe905;" glyph-name="wl_account_info" d="M739.556 590.222v227.556h-455.111v-227.556h-170.667v-170.667h796.444v170.667h-170.667zM625.778 590.222h-227.556v113.778h227.556v-113.778zM113.778 362.666h796.444v-284.444h-796.444v284.444z" />
<glyph unicode="&#xe906;" glyph-name="wl_dev_test" d="M113.778 789.333h796.444v-682.667h-796.444v682.667zM323.792 562.395l-91.656-93.627 40.227-40.227 133.854 133.854-135.692 135.692-40.227-40.227 93.494-95.465z" />
<glyph unicode="&#xe907;" glyph-name="wl_channel" d="M889.601 448v-161.85c0-59.573-48.39-107.865-108.202-107.865h-538.797c-59.759 0-108.202 47.871-108.202 107.865v323.7c0 59.573 48.392 107.865 108.202 107.865h538.797c59.759 0 108.202-47.87 108.202-107.865v-53.964h-755.198v-107.886h755.198z" />
<glyph unicode="&#xe908;" glyph-name="wl_authorization" d="M739.556 504.889h56.748c31.497 0 57.030-25.773 57.030-56.72v-341.671c0-31.326-25.928-56.72-57.030-56.72h-568.607c-31.497 0-57.030 25.773-57.030 56.72v341.671c0 31.326 25.928 56.72 57.030 56.72h56.748v114.17c0 125.459 102.136 227.163 227.556 227.163 125.675 0 227.556-101.679 227.556-227.163v-114.17zM625.778 504.889v113.8c0 63.271-50.94 113.756-113.778 113.756-63.276 0-113.778-50.93-113.778-113.756v-113.8h227.556zM512 201.481c41.892 0 75.852 33.96 75.852 75.852s-33.96 75.852-75.852 75.852c-41.892 0-75.852-33.96-75.852-75.852s33.96-75.852 75.852-75.852z" />
<glyph unicode="&#xe909;" glyph-name="wl_data_analysis" d="M113.778 561.778h113.778v-512h-113.778v512zM341.333 846.222h113.778v-796.444h-113.778v796.444zM568.889 732.444h113.778v-682.667h-113.778v682.667zM796.444 391.111h113.778v-341.333h-113.778v341.333z" />
<glyph unicode="&#xe90a;" glyph-name="wl_notification" d="M227.556 618.667c0 157.094 127.67 284.444 284.444 284.444 157.094 0 284.444-127.67 284.444-284.444v-284.444h-568.889v284.444zM113.778 277.333c0 31.419 25.597 56.889 57.278 56.889h681.888c31.634 0 57.278-25.251 57.278-56.889 0-31.419-25.597-56.889-57.278-56.889h-681.888c-31.634 0-57.278 25.251-57.278 56.889zM398.222 163.556c0-62.838 50.94-113.778 113.778-113.778s113.778 50.94 113.778 113.778h-227.556z" />
<glyph unicode="&#xe90b;" glyph-name="wl_sys_monitor" d="M512 49.778c-219.932 0-398.222 178.29-398.222 398.222s178.29 398.222 398.222 398.222c219.932 0 398.222-178.29 398.222-398.222s-178.29-398.222-398.222-398.222zM512 163.556c157.094 0 284.444 127.35 284.444 284.444s-127.35 284.444-284.444 284.444c-157.094 0-284.444-127.35-284.444-284.444s127.35-284.444 284.444-284.444zM512 334.222c62.838 0 113.778 50.94 113.778 113.778s-50.94 113.778-113.778 113.778c-62.838 0-113.778-50.94-113.778-113.778s50.94-113.778 113.778-113.778z" />
<glyph unicode="&#xe90c;" glyph-name="wl_app_home" d="M512 334.222v455.111l-341.333-227.556v-455.111h227.556v227.556h113.778zM512 334.222v455.111l341.333-227.556v-455.111h-227.556v227.556h-113.778z" />
<glyph unicode="&#xe90d;" glyph-name="wl_user_profile" d="M512 504.889c94.257 0 170.667 76.41 170.667 170.667s-76.41 170.667-170.667 170.667c-94.257 0-170.667-76.41-170.667-170.667s76.41-170.667 170.667-170.667zM910.222 192c0 109.966-178.29 199.111-398.222 199.111s-398.222-89.145-398.222-199.111h796.444zM113.778 192h796.444v-99.556h-796.444v99.556z" />
<glyph unicode="&#xe90e;" glyph-name="wl_help" d="M817.424 180.486l-115.85 115.904c33.504 41.744 54.374 94.004 54.374 151.63 0 57.356-20.708 109.454-53.996 151.198l115.85 115.85c62.56-71.504 100.78-164.804 100.78-267.048 0-102.514-38.382-195.976-101.158-267.536zM244.73 142.376l115.85 115.85c41.742-33.394 93.95-54.158 151.414-54.158 57.41 0 109.508 20.708 151.198 53.996l115.904-115.904c-71.56-62.506-164.858-100.726-267.1-100.726-102.352 0-195.704 38.274-267.264 100.942zM105.406 448.022c0 102.352 38.328 195.704 100.998 267.264l115.85-115.85c-33.394-41.742-54.212-93.95-54.212-151.414 0-57.518 20.818-109.724 54.212-151.468l-115.85-115.85c-62.668 71.504-100.996 164.912-100.996 267.318zM511.996 258.28c-104.63 0-189.74 85.112-189.74 189.74 0 104.574 85.112 189.74 189.74 189.74s189.74-85.168 189.74-189.74c0-104.63-85.112-189.74-189.74-189.74zM779.53 753.396l-115.85-115.85c-41.798 33.502-94.112 54.43-151.686 54.43-57.464 0-109.67-20.818-151.414-54.212l-115.85 115.85c71.504 62.668 164.912 100.996 267.264 100.996 102.46 0 195.92-38.436 267.536-101.214zM511.996 908.822c-254.036 0-460.8-206.764-460.8-460.8 0-254.090 206.764-460.8 460.8-460.8 254.092 0 460.8 206.71 460.8 460.8 0 254.036-206.71 460.8-460.8 460.8z" />
<glyph unicode="&#xe90f;" glyph-name="wl_message" d="M860.16 898.56h-716.8c-71.68 0-128-56.32-128-128v-512c0-71.68 56.32-128 128-128h230.4l76.8-102.4c15.36-15.36 30.72-25.6 51.2-25.6s35.84 10.24 51.2 25.6l76.8 102.4h230.4c71.68 0 128 56.32 128 128v512c0 71.68-56.32 128-128 128zM936.96 258.56c0-40.96-35.84-76.8-76.8-76.8h-256l-92.16-122.88c-5.12-10.24-15.36-10.24-20.48 0l-92.16 122.88h-256c-40.96 0-76.8 35.84-76.8 76.8v512c0 40.96 35.84 76.8 76.8 76.8h716.8c40.96 0 76.8-35.84 76.8-76.8v-512zM348.16 519.68c0-28.276-22.924-51.2-51.2-51.2s-51.2 22.924-51.2 51.2c0 28.276 22.924 51.2 51.2 51.2s51.2-22.924 51.2-51.2zM552.96 519.68c0-28.276-22.924-51.2-51.2-51.2s-51.2 22.924-51.2 51.2c0 28.276 22.924 51.2 51.2 51.2s51.2-22.924 51.2-51.2zM757.76 519.68c0-28.276-22.924-51.2-51.2-51.2s-51.2 22.924-51.2 51.2c0 28.276 22.924 51.2 51.2 51.2s51.2-22.924 51.2-51.2z" />
<glyph unicode="&#xe910;" glyph-name="wl_search" d="M804.486 134.308c-9.984-10.034-26.214-9.984-36.25 0.052l-144.692 144.692c-10.138 10.138-10.188 26.164-0.102 36.25 10.034 10.034 26.214 10.034 36.302-0.052l144.692-144.692c10.138-10.138 10.138-26.164 0.052-36.25zM228.588 369.366c-99.994 99.994-99.994 262.094 0 362.036 99.942 99.994 262.042 99.994 362.036 0 99.994-99.942 99.994-262.042 0-362.036-99.994-99.942-262.094-99.942-362.036 0zM840.632 206.756l-144.692 144.692c-10.394 10.394-22.99 17.202-36.302 20.428 85.914 120.014 74.956 287.95-32.818 395.726-119.962 120.014-314.47 120.014-434.432 0-119.962-119.962-119.962-314.47 0-434.432 101.17-101.172 255.386-117.044 373.198-47.514 2.406-15.668 9.678-30.72 21.76-42.802l144.692-144.692c30.054-30.054 78.644-30.054 108.646-0.052 30.208 30.208 29.952 78.644-0.052 108.646z" />
<glyph unicode="&#xe911;" glyph-name="wl_todolist" d="M153.6 448v0c14.138 0 25.6 11.462 25.6 25.6s-11.462 25.6-25.6 25.6c-14.138 0-25.6-11.462-25.6-25.6s11.462-25.6 25.6-25.6v0zM153.6 396.8c-42.414 0-76.8 34.384-76.8 76.8s34.386 76.8 76.8 76.8c42.414 0 76.8-34.384 76.8-76.8s-34.384-76.8-76.8-76.8zM153.6 140.8c14.138 0 25.6 11.462 25.6 25.6s-11.462 25.6-25.6 25.6c-14.138 0-25.6-11.462-25.6-25.6s11.462-25.6 25.6-25.6zM153.6 89.6c-42.414 0-76.8 34.384-76.8 76.8s34.386 76.8 76.8 76.8c42.414 0 76.8-34.384 76.8-76.8s-34.384-76.8-76.8-76.8zM384 806.4v-51.2h614.4v51.2h-614.4zM384 499.2v-51.2h614.4v51.2h-614.4zM384 192v-51.2h614.4v51.2h-614.4zM58.61 788.286l36.204 36.204 74.63-74.63h-36.204l148.274 148.276 36.204-36.204-166.378-166.378-92.73 92.73z" />
<glyph unicode="&#xe912;" glyph-name="wl_webhooks" d="M512 561.778v284.444c-219.932 0-398.222-178.29-398.222-398.222s178.29-398.222 398.222-398.222c219.932 0 398.222 178.29 398.222 398.222 0 180.396-119.951 332.776-284.444 381.731v-552.398l-284.444 284.444h170.667z" />
<glyph unicode="&#xe913;" glyph-name="fenqile" d="M874.056 226.385h-8.935v37.559c0 6.465-0.815 11.426-3.089 14.886-2.278 3.458-6.348 5.189-12.538 5.189-3.369 0-6.112-0.661-8.386-1.981-2.276-1.32-4.079-3.071-5.491-5.256-1.41-2.185-2.424-4.666-3.058-7.443-0.639-2.779-0.945-5.667-0.945-8.669v-34.284h-8.935v37.559c0 6.465-1.168 11.426-3.444 14.886-2.278 3.458-6.525 5.189-12.715 5.189-0.547 0-1.805-0.183-3.762-0.545-1.959-0.364-3.987-1.367-6.083-3.004-2.093-1.64-3.639-4.097-5.321-7.376-1.686-3.277-2.182-7.829-2.182-13.653v-33.055h-8.935v49.987c0 2.366-0.453 5.026-0.59 7.396-0.136 2.366-0.681 5.162-0.862 7.396h10.387v-11.169h-0.42c2.185 4.468 5.211 6.996 9.080 8.906 3.869 1.914 7.715 3.089 11.54 3.089 1.727 0 3.572-0.074 5.531-0.436 1.957-0.366 3.844-0.969 5.667-1.926 1.818-0.956 3.527-2.272 5.12-4.001 1.593-1.731 2.935-3.945 4.027-6.677 1.821 4.097 4.713 7.333 8.671 9.701 3.96 2.366 8.077 3.554 12.357 3.554 8.193 0 13.885-2.162 17.801-6.482 3.914-4.327 5.508-10.494 5.508-18.502v-40.838zM757.143 245.236c-1.686-4.097-4.030-7.644-7.032-10.648-3.004-3.004-6.578-5.35-10.72-7.034-4.144-1.682-8.716-2.524-13.724-2.524-4.917 0-9.444 0.842-13.586 2.524-4.144 1.684-7.715 4.030-10.72 7.034s-5.35 6.552-7.032 10.648c-1.686 4.097-2.526 8.558-2.526 13.385 0 4.823 0.84 9.286 2.526 13.382 1.682 4.094 4.027 7.646 7.032 10.648 3.004 3.004 6.576 5.348 10.72 7.034 4.141 1.684 8.669 2.526 13.586 2.526 5.008 0 9.581-0.842 13.724-2.526 4.141-1.686 7.715-4.030 10.72-7.034 3.002-3.002 5.345-6.554 7.032-10.648 1.684-4.097 2.526-8.56 2.526-13.382 0-4.827-0.842-9.288-2.526-13.385v0zM634.042 248.446c1.092-3.138 2.683-5.85 4.778-8.124 2.093-2.276 4.619-4.052 7.579-5.328 2.958-1.273 6.301-1.863 10.036-1.771 3.552 0 6.712 0.818 9.491 2.455 2.774 1.642 4.937 3.641 6.485 6.011l7.374-5.6c-3.185-3.733-6.782-6.487-10.787-8.26-4.007-1.776-8.193-2.707-12.563-2.799-5.189-0.089-9.88 0.706-14.066 2.388-4.188 1.684-7.76 4.030-10.72 7.032-2.958 3.004-5.211 6.578-6.757 10.72-1.548 4.144-2.321 8.625-2.321 13.452 0 4.823 0.773 9.306 2.321 13.45 1.546 4.141 3.8 7.715 6.757 10.72 2.96 3.004 6.532 5.348 10.72 7.032 4.186 1.682 8.877 2.479 14.066 2.39 4.369-0.092 8.555-1.023 12.563-2.799 4.005-1.776 7.602-4.532 10.787-8.26l-7.374-5.6c-1.548 2.366-3.71 4.369-6.485 6.007-2.779 1.642-5.94 2.459-9.491 2.459-3.735 0.089-7.079-0.503-10.036-1.776-2.96-1.275-5.486-3.049-7.579-5.325-2.095-2.276-3.686-4.984-4.778-8.126-1.095-3.138-1.64-6.529-1.64-10.17 0-3.643 0.545-7.034 1.64-10.175v0zM598.948 228.1c-1.367-1.501-3.138-2.254-5.325-2.254-2.185 0-3.958 0.753-5.325 2.254-1.365 1.501-2.048 3.208-2.048 5.122 0 1.91 0.684 3.619 2.048 5.12 1.367 1.501 3.141 2.252 5.325 2.252 2.187 0 3.958-0.751 5.325-2.252 1.365-1.501 2.048-3.21 2.048-5.12 0-1.914-0.684-3.621-2.048-5.122v0zM563.562 255.424h-52.145c0.275-2.234 1.048-5.821 2.321-8.642 1.275-2.823 2.96-5.073 5.055-7.121 2.093-2.048 4.506-3.574 7.235-4.758 2.732-1.182 5.689-1.727 8.877-1.727 4.825 0 8.989 1.135 12.493 3.366 3.505 2.229 6.167 4.814 7.988 7.729l6.965-5.73c-3.822-4.825-8.035-8.283-12.63-10.374-4.599-2.095-9.538-3.141-14.817-3.141-4.736 0-9.129 0.842-13.179 2.526s-7.532 4.030-10.445 7.034c-2.913 3.002-5.211 6.552-6.896 10.648s-2.526 8.555-2.526 13.385c0 4.823 0.82 9.286 2.459 13.382 1.637 4.094 3.911 7.646 6.826 10.648 2.913 3.004 6.326 5.348 10.242 7.034 3.914 1.684 8.147 2.526 12.699 2.526 4.825 0 9.15-0.867 12.971-2.593 3.824-1.733 7.034-4.030 9.628-6.898 2.596-2.866 4.019-6.234 5.386-10.106 1.365-3.869 1.492-7.988 1.492-12.357v-4.834zM471.978 226.385v102.753h8.935v-102.753h-8.935zM443.828 310.442c-1.365-1.231-2.868-1.843-4.506-1.843-1.64 0-3.141 0.612-4.508 1.843-1.365 1.229-2.048 2.799-2.048 4.711s0.684 3.482 2.048 4.711c1.367 1.229 2.868 1.843 4.508 1.843 1.637 0 3.141-0.614 4.506-1.843s2.048-2.799 2.048-4.711c0-1.912-0.684-3.482-2.048-4.711v0zM434.004 226.385v64.779h8.935v-64.779h-8.935zM322.316 226.385h-8.935v35.649c0 7.101-1.756 12.538-4.213 16.318-2.457 3.777-7.275 5.667-13.919 5.667-0.456 0-1.861-0.183-3.954-0.545-2.095-0.364-4.367-1.367-6.69-3.004-2.321-1.64-4.519-4.097-6.339-7.376-1.823-3.277-2.859-7.829-2.859-13.653v-33.055h-8.935v50.121c0 1.731-0.011 4.211-0.15 6.851-0.136 2.64-0.239 5.573-0.42 7.807h9.284c0.183-2.234 0.295-3.902 0.342-5.584 0.047-1.684 0.069-3.351 0.069-5.584h0.273c1.001 2.234 2.276 3.489 3.824 4.948 1.546 1.454 3.277 2.79 5.189 3.838s3.936 1.908 6.076 2.5c2.138 0.592 4.255 0.909 6.351 0.909 8.193 0 14.734-2.153 18.647-6.473 3.914-4.327 6.36-10.485 6.36-18.493v-40.838zM246.368 255.424h-52.838c0.273-2.234 1.045-5.821 2.321-8.642 1.273-2.823 2.958-5.073 5.053-7.121 2.093-2.048 4.506-3.574 7.237-4.758 2.73-1.182 5.687-1.727 8.875-1.727 4.825 0 8.989 1.135 12.496 3.366 3.503 2.229 6.165 4.814 7.988 7.729l6.963-5.73c-3.822-4.825-8.035-8.283-12.63-10.374-4.597-2.095-9.538-3.141-14.817-3.141-4.733 0-9.127 0.842-13.177 2.526-4.052 1.684-7.534 4.030-10.445 7.034-2.915 3.002-5.214 6.552-6.896 10.648-1.686 4.097-2.529 8.555-2.529 13.385 0 4.823 0.822 9.286 2.459 13.382 1.637 4.094 3.914 7.646 6.829 10.648 2.911 3.004 6.326 5.348 10.24 7.034 3.914 1.684 8.147 2.526 12.701 2.526 4.823 0 9.147-0.867 12.971-2.593 3.824-1.733 7.032-4.030 9.628-6.898 2.593-2.866 4.365-6.234 5.732-10.106 1.365-3.869 1.838-7.988 1.838-12.357v-4.834zM176.598 322.39c-1.092 0.273-2.232 0.498-3.413 0.681-1.184 0.181-2.37 0.273-3.552 0.273-2.457 0-4.461-0.407-6.009-1.229-1.548-0.82-2.73-1.979-3.549-3.48-0.82-1.503-1.87-3.257-2.142-5.258-0.275-2.004-0.916-4.144-0.916-6.418v-15.795h15.636v-8.935h-15.636v-55.844h-8.935v55.844h-13.403v8.935h13.403v16.887c0 8.466 2.424 14.497 6.339 18.094 3.911 3.596 9.335 5.392 15.799 5.392 1.273 0 2.687-0.092 4.007-0.273 1.318-0.183 2.674-0.409 3.949-0.684l-1.579-8.191zM910.013 347.008h-776.611c-42.243 0-45.531-27.038-57.227-57.714-16.959-44.468-36.79-98.65-36.79-98.65h361.113v46.909h-0.094c-1.456-2.234-3.185-4.17-5.187-5.718-2.004-1.548-4.097-2.882-6.281-3.882s-4.438-1.756-6.759-2.214c-2.323-0.456-4.53-0.697-6.623-0.697-5.008 0-9.583 0.835-13.724 2.52-4.144 1.684-7.715 4.025-10.718 7.030-3.007 3.002-5.35 6.549-7.034 10.646s-2.526 8.555-2.526 13.382c0 4.823 0.842 9.286 2.526 13.382 1.684 4.094 4.027 7.646 7.034 10.651 3.002 3.002 6.574 5.345 10.718 7.032 4.141 1.684 8.716 2.526 13.724 2.526 2.093 0 4.3-0.23 6.623-0.684 2.321-0.456 4.575-1.184 6.759-2.185 2.185-1.003 4.278-2.238 6.281-3.786 2.001-1.548 3.73-3.328 5.187-5.562h0.094v11.169h8.935v-100.519h500.58c42.888 0 73.576 35.24 73.576 78.186s-30.687 78.177-73.576 78.177zM393.851 276.645c2.274-2.278 4.050-4.963 5.325-8.055 1.273-3.098 1.912-6.42 1.912-9.969 0-3.552-0.639-6.873-1.912-9.969-1.275-3.096-3.051-5.781-5.325-8.057-2.276-2.276-4.984-4.074-8.124-5.395s-6.534-1.977-10.173-1.977c-3.735 0-7.081 0.657-10.039 1.977s-5.486 3.118-7.579 5.395c-2.095 2.276-3.708 4.961-4.847 8.057s-1.707 6.418-1.707 9.969c0 3.549 0.567 6.871 1.707 9.969 1.139 3.092 2.752 5.777 4.847 8.055 2.093 2.276 4.622 4.072 7.579 5.392s6.304 1.981 10.039 1.981c3.639 0 7.032-0.661 10.173-1.981s5.848-3.116 8.124-5.392zM512.186 501.139h-11.169v136.26h8.935v37.974h-8.935v8.935h-37.974v-8.935h-62.545v8.935h-37.974v-8.935h-6.701v-37.974h6.701v-136.26h-11.169v-35.74h160.831v35.74zM463.043 544.939v-43.8h-62.545v136.26h62.545v-70.661l35.126-11.115-35.126-10.684zM423.616 631.796l8.055-68.458 59.713-7.472-76.656-11.788 8.888 87.718zM378.655 398.385h-26.577l21.263 53.61h34.55l-5.316-18.835-23.919-34.775zM455.729 433.16l-5.314 18.835h34.547l21.263-53.61h-26.577l-23.919 34.775zM561.33 446.221l-17.897-47.836h-26.575l8.732 46.561v239.361h127.325v-285.922h-45.694l-13.289 29.039h21.009v53.61h-53.61v-34.813zM561.33 603.891h53.61v46.909h-53.61v-46.909zM561.33 519.008h53.61v46.909h-53.61v-46.909zM818.212 431.891h-35.584l13.289-35.74h58.035v113.922h129.558v37.974h-129.558v46.909h-35.74v-46.909h-91.397l21.172 93.818h212.708l15.949 42.442h-31.896l-5.035-6.701h-220.868l-29.236-129.558h-0.956v-37.974h129.558v-78.182zM118.199 646.333h-39.864l-37.21-67.013h29.236l47.838 67.013zM288.293 579.32h36.256v29.039h-12.337l-39.866 75.948h-172.751l-15.949-31.273h164.78l39.866-73.714zM221.848 431.891l15.949-33.506h68.883v172h-247.948v-33.506h33.996l-48.946-140.727h23.921l31.891 52.663 30.355 88.064h138.757v-104.987h-46.858zM718.844 398.385l34.55 66.149 5.314 20.968h-42.52l-26.58-87.117h29.236zM910.2 485.502l5.314-20.968 39.87-66.149h29.231l-31.894 87.117h-42.522zM743.282 276.645c-2.093 2.276-4.619 4.072-7.579 5.392s-6.304 1.981-10.036 1.981c-3.735 0-7.079-0.661-10.036-1.981-2.96-1.32-5.462-3.116-7.51-5.392-2.048-2.278-3.641-4.963-4.78-8.055-1.139-3.098-1.707-6.42-1.707-9.969 0-3.552 0.567-6.873 1.707-9.969s2.732-5.781 4.78-8.057c2.048-2.276 4.55-4.074 7.51-5.395 2.958-1.32 6.301-1.977 10.036-1.977 3.733 0 7.077 0.657 10.036 1.977s5.486 3.118 7.579 5.395c2.093 2.276 3.708 4.961 4.847 8.057s1.709 6.418 1.709 9.969c0 3.549-0.57 6.871-1.709 9.969-1.139 3.092-2.754 5.777-4.847 8.055zM534.086 284.018c-2.915 0-5.736-0.57-8.466-1.707-2.732-1.139-5.122-2.663-7.17-4.575s-3.686-3.683-4.914-6.143c-1.229-2.457-1.843-5.001-1.843-7.235h43.15c0 4.468-1.823 10.626-5.462 14.403-3.643 3.78-8.741 5.256-15.295 5.256zM216.198 284.018c-2.915 0-5.736-0.57-8.466-1.707-2.732-1.139-5.122-2.663-7.17-4.575s-3.686-3.683-4.914-6.143c-1.229-2.457-1.843-5.001-1.843-7.235h43.15c0 4.468-1.823 10.626-5.462 14.403-3.643 3.78-8.741 5.256-15.295 5.256z" />
<glyph unicode="&#xe914;" glyph-name="memedai" d="M602.793 881.226l-524.024-524.013v-250.552l774.555 774.565h-250.531zM143.753 881.23c-35.893 0-64.98-29.098-64.98-64.98v-275.243l340.223 340.223h-275.243zM945.231 447.999v341.325l-774.565-774.555h709.585c35.883 0 64.98 29.098 64.98 64.98v97.733c-74.7 0-135.253 60.563-135.253 135.263s60.553 135.253 135.253 135.253zM945.231 394.734c-45.283 0-81.99-36.707-81.99-81.99s36.707-81.99 81.99-81.99v163.98z" />
<glyph unicode="&#xe915;" glyph-name="CMB" d="M512.090 920.615c261.019-0.048 472.573-211.686 472.525-472.706-0.060-261.019-211.698-472.573-472.718-472.525-261.019 0.060-472.573 211.698-472.513 472.706 0.048 261.019 211.686 472.573 472.706 472.525zM273.888 559.283l-104.097-234.348c-2.902-6.526-4.275-13.354-4.275-20.073-0.012-19.844 11.993-38.725 32.006-46.335 24.865-9.452 52.753 3.661 63.554 27.984l65.926 148.409-53.114 124.363zM621.655 608.206c-6.49 15.22-19.531 27.249-35.715 30.693-24.095 5.118-47.419-7.815-56.365-29.585l-65.324-159.054c-1.71-4.166-7.586-4.202-9.356-0.060l-67.070 157.175c-6.394 14.979-19.122 26.888-35.016 30.513-23.745 5.407-47.045-6.852-56.51-28.141l-9.067-20.422 127.024-296.18c6.49-15.22 19.531-27.249 35.715-30.693 24.095-5.118 47.419 7.815 56.365 29.585l65.276 158.981c1.722 4.166 7.598 4.202 9.368 0.060l63.963-150.071c6.43-15.064 19.266-27.033 35.245-30.597 23.878-5.334 47.214 7.177 56.498 28.646l8.85 20.494-123.881 288.654zM824.065 638.282c-24.612 7.971-51.151-5.732-61.411-29.477l-57.678-133.49 53.716-125.326 95.716 221.5c11.451 26.587-2.131 57.654-30.344 66.793z" />
<glyph unicode="&#xe916;" glyph-name="lianghuapai" d="M1.358 472.816v20.316h325.511v-20.316h-325.511zM32.55 508.027v86.678h261.765v-86.678h-261.765zM67.816 526.988h191.237v16.253h-191.237v-16.253zM67.816 559.49h191.237v16.253h-191.237v-16.253zM35.266 457.917h257.696v-93.446h-111.219v-16.253h122.070v-18.962h-122.070v-14.899h146.481v-21.666h-328.224v21.666h146.481v14.899h-122.066v18.962h122.066v16.253h-111.215v93.446zM181.743 419.994h77.31v18.962h-77.31v-18.962zM69.171 419.994h77.306v18.962h-77.306v-18.962zM181.743 383.429h77.31v18.962h-77.31v-18.962zM69.171 383.429h77.306v18.962h-77.306v-18.962zM638.814 403.744c-3.625-28.906-5.89-47.4-6.782-55.527-1.821-15.362-11.764-22.578-29.836-21.671h-25.771c-17.185-0.907-25.323 7.215-24.411 24.379v79.906c43.4 31.591 81.823 66.805 115.284 105.636l-29.84 25.73c-25.323-31.611-53.807-60.054-85.444-85.32v125.952h-39.335v-153.040c-21.698-14.451-46.581-28.439-74.597-41.983 10.851-14.455 18.077-25.734 21.702-33.86 20.79 11.726 38.423 22.118 52.895 31.151v-59.59c-1.821-37.012 15.808-54.616 52.895-52.818h40.691c36.154-0.891 56.051 11.299 59.677 36.565 3.601 16.253 6.778 36.569 9.491 60.944-3.621 1.798-9.491 4.063-17.629 6.772-9.051 3.599-15.385 5.861-18.989 6.772zM429.946 605.538c-21.702-58.703-50.182-110.167-85.448-154.391l13.564-46.050c4.513 5.418 10.851 13.987 18.989 25.734 8.138 10.835 14.008 18.962 17.629 24.375v-170.643h35.266v228.879c13.564 25.27 26.215 51.911 37.975 79.906l-37.975 12.19zM755.455 532.405l25.771 25.734c-13.564 12.633-31.197 27.084-52.899 43.337l-23.054-23.025c3.601-3.616 9.026-8.59 16.277-14.899 16.272-14.451 27.567-24.839 33.905-31.147zM962.967 405.099c10.851 5.418 29.836 15.342 56.964 29.797l-16.272 29.793c-7.25-4.527-17.189-10.392-29.84-17.607-9.051-5.418-15.829-9.481-20.346-12.186-2.709 16.249-5.426 34.743-8.138 55.527 9.030 0.887 22.146 2.705 39.335 5.414 11.739 1.802 20.342 3.156 25.767 4.063l-12.203 31.151c-43.4-9.038-90.873-15.362-142.412-18.962v-170.643c0.888-12.653-2.713-22.557-10.851-29.793l18.989-28.443c2.713 2.709 6.782 5.881 12.207 9.481 18.077 9.034 37.975 18.514 59.677 28.439 0 2.709-0.469 8.126-1.356 16.253 0 7.215-0.469 12.633-1.36 16.253l-44.756-23.025v153.040c2.713 0.887 7.23 1.354 13.564 1.354 6.317 0.887 10.851 1.354 13.564 1.354 2.713-82.172 29.836-145.825 81.375-190.96 9.030 9.034 18.081 18.071 27.128 27.084-29.836 24.379-50.182 51.911-61.033 82.615zM1002.3 597.412c-72.349-9.945-141.968-16.253-208.87-18.962v-127.306c0-39.738-2.265-69.067-6.778-88.029-4.538-18.962-14.476-38.831-29.84-59.59 3.601-3.599 10.382-9.017 20.346-16.253 4.513-3.595 7.67-5.861 9.495-6.772 16.272 25.291 27.124 48.755 32.549 70.425 5.426 22.557 8.138 56.881 8.138 102.927v92.096c58.764 3.595 120.71 9.924 185.812 18.962l-10.851 32.502zM745.962 444.375l24.411 27.084c-2.709 1.802-6.778 4.954-12.207 9.481-18.985 15.342-32.549 26.177-40.687 32.506l-24.411-23.025c3.601-2.709 9.026-7.236 16.272-13.544 17.168-14.451 29.372-25.286 36.622-32.502zM731.043 417.288c-10.851-44.248-21.702-84.433-32.553-120.534l35.266-9.481c4.513 18.962 11.739 46.493 21.698 82.615 4.517 18.958 7.674 31.595 9.495 37.919-10.851 2.709-22.167 5.861-33.905 9.481z" />
</font>
</defs>
</svg>
